HIERARCHY
ROOT Hips
{
  OFFSET -21.6994 31.6921 0
  CHANNELS 6 Xposition Yposition Zposition Zrotation Xrotation Yrotation
  JOINT Bip01_Pelvis
  {
    OFFSET 0 0 0
    CHANNELS 6 Xposition Yposition Zposition Zrotation Xrotation Yrotation
    JOINT BN_Tail_01
    {
      OFFSET -7.25226 -1.74978 0
      CHANNELS 6 Xposition Yposition Zposition Zrotation Xrotation Yrotation
      JOINT BN_Tail_02
      {
        OFFSET 15.788 0 0
        CHANNELS 6 Xposition Yposition Zposition Zrotation Xrotation Yrotation
        JOINT BN_Tail_03
        {
          OFFSET 16.0015 0 0
          CHANNELS 6 Xposition Yposition Zposition Zrotation Xrotation Yrotation
          JOINT BN_Tail_04
          {
            OFFSET 16.1689 0 0
            CHANNELS 6 Xposition Yposition Zposition Zrotation Xrotation Yrotation
            End Site
            {
              OFFSET 0 0 0
            }
          }
        }
      }
    }
    JOINT Bip01_Spine
    {
      OFFSET 6.38383 2.70859 0.585432
      CHANNELS 6 Xposition Yposition Zposition Zrotation Xrotation Yrotation
      JOINT BN_Mane_02
      {
        OFFSET 6.12662 8.45826 0
        CHANNELS 6 Xposition Yposition Zposition Zrotation Xrotation Yrotation
        End Site
        {
          OFFSET 0 0 0
        }
      }
      JOINT Bip01_R_Thigh
      {
        OFFSET -7.04074 -2.18223 -5.47025
        CHANNELS 6 Xposition Yposition Zposition Zrotation Xrotation Yrotation
        JOINT Bip01_R_Calf
        {
          OFFSET 13.6591 0 0
          CHANNELS 6 Xposition Yposition Zposition Zrotation Xrotation Yrotation
          JOINT Bip01_R_HorseLink
          {
            OFFSET 9.07516 0 0
            CHANNELS 6 Xposition Yposition Zposition Zrotation Xrotation Yrotation
            JOINT Bip01_R_Foot
            {
              OFFSET 8.13856 0 0
              CHANNELS 6 Xposition Yposition Zposition Zrotation Xrotation Yrotation
              JOINT Bip01_R_Toe0
              {
                OFFSET 3.79737 6.30086 0
                CHANNELS 6 Xposition Yposition Zposition Zrotation Xrotation Yrotation
                JOINT Bip01_R_Toe0Nub
                {
                  OFFSET 0.838764 0 0
                  CHANNELS 6 Xposition Yposition Zposition Zrotation Xrotation Yrotation
                  End Site
                  {
                    OFFSET 0 0 0
                  }
                }
              }
            }
          }
        }
      }
      JOINT Bip01_L_Thigh
      {
        OFFSET -6.18667 -2.14873 5.3508
        CHANNELS 6 Xposition Yposition Zposition Zrotation Xrotation Yrotation
        JOINT Bip01_L_Calf
        {
          OFFSET 13.6591 0 0
          CHANNELS 6 Xposition Yposition Zposition Zrotation Xrotation Yrotation
          JOINT Bip01_L_HorseLink
          {
            OFFSET 9.07515 0 0
            CHANNELS 6 Xposition Yposition Zposition Zrotation Xrotation Yrotation
            JOINT Bip01_L_Foot
            {
              OFFSET 8.13856 0 0
              CHANNELS 6 Xposition Yposition Zposition Zrotation Xrotation Yrotation
              JOINT Bip01_L_Toe0
              {
                OFFSET 3.79737 6.30086 0
                CHANNELS 6 Xposition Yposition Zposition Zrotation Xrotation Yrotation
                JOINT Bip01_L_Toe0Nub
                {
                  OFFSET 0.838764 0 0
                  CHANNELS 6 Xposition Yposition Zposition Zrotation Xrotation Yrotation
                  End Site
                  {
                    OFFSET 0 0 0
                  }
                }
              }
            }
          }
        }
      }
      JOINT Bip01_Spine1
      {
        OFFSET 12.1687 -0.0105438 0
        CHANNELS 6 Xposition Yposition Zposition Zrotation Xrotation Yrotation
        JOINT BN_Mane_R_01
        {
          OFFSET -0.157498 5.09008 -6.54008
          CHANNELS 6 Xposition Yposition Zposition Zrotation Xrotation Yrotation
          End Site
          {
            OFFSET 0 0 0
          }
        }
        JOINT BN_Mane_R_02
        {
          OFFSET -0.1575 5.09007 6.54
          CHANNELS 6 Xposition Yposition Zposition Zrotation Xrotation Yrotation
          End Site
          {
            OFFSET 0 0 0
          }
        }
        JOINT BN_Mane_01
        {
          OFFSET 8.29709 8.50414 0
          CHANNELS 6 Xposition Yposition Zposition Zrotation Xrotation Yrotation
          End Site
          {
            OFFSET 0 0 0
          }
        }
        JOINT Bip01_Spine2
        {
          OFFSET 13.2802 -0.0100708 1.51992e-005
          CHANNELS 6 Xposition Yposition Zposition Zrotation Xrotation Yrotation
          JOINT Bip01_Neck
          {
            OFFSET 12.4891 -6.66662 0
            CHANNELS 6 Xposition Yposition Zposition Zrotation Xrotation Yrotation
            JOINT Bip01_R_Clavicle
            {
              OFFSET -7.4542 -2.82621 -1.17874
              CHANNELS 6 Xposition Yposition Zposition Zrotation Xrotation Yrotation
              JOINT Bip01_R_UpperArm
              {
                OFFSET 13.2557 0 0
                CHANNELS 6 Xposition Yposition Zposition Zrotation Xrotation Yrotation
                JOINT Bip01_R_Forearm
                {
                  OFFSET 12.8897 0 0
                  CHANNELS 6 Xposition Yposition Zposition Zrotation Xrotation Yrotation
                  JOINT Bip01_R_Hand
                  {
                    OFFSET 11.2622 0 0
                    CHANNELS 6 Xposition Yposition Zposition Zrotation Xrotation Yrotation
                    JOINT Bip01_R_Finger0
                    {
                      OFFSET 3.98015 -0.208661 -0.0949803
                      CHANNELS 6 Xposition Yposition Zposition Zrotation Xrotation Yrotation
                      JOINT Bip01_R_Finger0Nub
                      {
                        OFFSET 6.57561 0 0
                        CHANNELS 6 Xposition Yposition Zposition Zrotation Xrotation Yrotation
                        End Site
                        {
                          OFFSET 0 0 0
                        }
                      }
                    }
                  }
                }
              }
            }
            JOINT Bip01_L_Clavicle
            {
              OFFSET -7.4541 -2.82679 1.17708
              CHANNELS 6 Xposition Yposition Zposition Zrotation Xrotation Yrotation
              JOINT Bip01_L_UpperArm
              {
                OFFSET 13.2558 0 0
                CHANNELS 6 Xposition Yposition Zposition Zrotation Xrotation Yrotation
                JOINT Bip01_L_Forearm
                {
                  OFFSET 12.8897 0 0
                  CHANNELS 6 Xposition Yposition Zposition Zrotation Xrotation Yrotation
                  JOINT Bip01_L_Hand
                  {
                    OFFSET 11.2622 0 0
                    CHANNELS 6 Xposition Yposition Zposition Zrotation Xrotation Yrotation
                    JOINT Bip01_L_Finger0
                    {
                      OFFSET 3.98014 -0.20866 0.0949764
                      CHANNELS 6 Xposition Yposition Zposition Zrotation Xrotation Yrotation
                      JOINT Bip01_L_Finger0Nub
                      {
                        OFFSET 6.57562 0 0
                        CHANNELS 6 Xposition Yposition Zposition Zrotation Xrotation Yrotation
                        End Site
                        {
                          OFFSET 0 0 0
                        }
                      }
                    }
                  }
                }
              }
            }
            JOINT Bip01_Neck1
            {
              OFFSET 4.19352 -0.00332451 0
              CHANNELS 6 Xposition Yposition Zposition Zrotation Xrotation Yrotation
              JOINT Bip01_Head
              {
                OFFSET 4.17604 0.298252 0
                CHANNELS 6 Xposition Yposition Zposition Zrotation Xrotation Yrotation
                JOINT BN_Eye_R_01
                {
                  OFFSET 6.53258 -3.90694 -2.55361
                  CHANNELS 6 Xposition Yposition Zposition Zrotation Xrotation Yrotation
                  End Site
                  {
                    OFFSET 0 0 0
                  }
                }
                JOINT BN_Eye_L_01
                {
                  OFFSET 6.5326 -3.90694 2.55371
                  CHANNELS 6 Xposition Yposition Zposition Zrotation Xrotation Yrotation
                  End Site
                  {
                    OFFSET 0 0 0
                  }
                }
                JOINT BN_Ear_R_01
                {
                  OFFSET 1.75934 -4.1584 -4.45634
                  CHANNELS 6 Xposition Yposition Zposition Zrotation Xrotation Yrotation
                  End Site
                  {
                    OFFSET 0 0 0
                  }
                }
                JOINT BN_Ear_L_01
                {
                  OFFSET 1.75933 -4.15841 4.45616
                  CHANNELS 6 Xposition Yposition Zposition Zrotation Xrotation Yrotation
                  End Site
                  {
                    OFFSET 0 0 0
                  }
                }
                JOINT BN_Beard_L_01
                {
                  OFFSET 11.2964 -1.06183 2.32054
                  CHANNELS 6 Xposition Yposition Zposition Zrotation Xrotation Yrotation
                  End Site
                  {
                    OFFSET 0 0 0
                  }
                }
                JOINT BN_Beard_R_01
                {
                  OFFSET 11.2964 -1.06182 -2.32036
                  CHANNELS 6 Xposition Yposition Zposition Zrotation Xrotation Yrotation
                  End Site
                  {
                    OFFSET 0 0 0
                  }
                }
                JOINT BN_Mouth_0
                {
                  OFFSET 1.3149 1.30001 0
                  CHANNELS 6 Xposition Yposition Zposition Zrotation Xrotation Yrotation
                  End Site
                  {
                    OFFSET 0 0 0
                  }
                }
                JOINT Bip01_HeadNub
                {
                  OFFSET 12.6869 0 0
                  CHANNELS 6 Xposition Yposition Zposition Zrotation Xrotation Yrotation
                  End Site
                  {
                    OFFSET 0 0 0
                  }
                }
              }
            }
          }
        }
      }
    }
  }
}
MOTION
Frames:	4
Frame Time:	0.0333333
-21.6994 27.9295 0 -180 -90 -90 0 1.13687e-013 0 -89.9973 1.65211 -89.9979 -7.25225 -1.74978 2.91038e-011 -29.129 10.7053 175.79 15.788 3.8147e-006 0 -41.2179 20.3668 12.9498 16.0015 0 0 -42.0231 -3.58054 28.6145 16.1689 -3.8147e-006 -3.8147e-006 -36.0002 -0.229431 30.8263 6.33245 2.89308 -2.91038e-011 21.992 -1.16569e-010 1.26202e-010 6.12662 8.45826 0 -88.9944 -0.0323181 -179.967 -6.95508 -0.311039 -5.42737 -90.5723 0.999452 173.787 13.6591 0 -4.76837e-007 -41.5484 7.2992e-006 6.50032e-006 9.07515 3.8147e-006 8.88178e-016 35.8068 1.31312e-006 -6.14045e-007 8.13856 3.8147e-006 0.000670433 26.3825 3.07596 5.43334 3.79726 6.30091 0.000694275 89.9467 1.14484e-009 1.48893e-009 0.83877 5.96046e-008 1.77636e-015 2.82888e-008 -5.35084e-010 -1.85155e-009 -6.95508 -0.311068 5.42738 -141.705 -2.31151 -176.828 13.6591 4.76837e-007 -8.88178e-016 -90.011 -1.00791e-005 9.60482e-006 9.07516 -3.55271e-015 8.88178e-016 61.8399 5.48597e-006 -8.7926e-006 8.13856 0 4.76837e-007 -3.11 -12.8571 -4.00196 3.79737 6.30085 9.53674e-007 89.9995 6.615e-005 -12.4979 0.838765 -1.38778e-017 9.53674e-007 -179.96 0.000181118 -0.000158999 12.1681 -0.0104809 2.91038e-011 -7.77667 -3.76115e-011 4.88966e-011 -0.157499 5.09008 -6.54008 -92.7422 -0.000104471 -167.983 -0.157503 5.09007 6.54 87.255 -0.000390274 12.0139 8.29709 8.50413 -3.25261e-019 -91.651 -0.0228119 -179.978 13.2792 -0.00986099 -5.82077e-011 -14.6228 -1.52928e-011 -1.78909e-011 12.4882 -6.66643 -5.82077e-011 -19.6204 3.58167e-010 -1.6524e-011 -6.4536 -4.6782 -1.17794 -160.428 -52.226 111.902 13.2557 0 -1.90735e-006 135.848 80.8846 -165.125 12.8897 -1.90735e-006 -9.53674e-007 -65.188 -6.91077e-006 -1.54004e-005 11.2622 4.76837e-007 -1.77636e-015 -94.1697 72.8762 125.921 3.98015 -0.208658 -0.0949803 2.06108 8.51483 -35.8328 6.57561 -1.19209e-007 -1.19209e-007 179.96 -1.00318e-005 1.73046e-005 -6.45361 -4.67821 1.17789 -160.44 55.331 -93.644 13.2558 -1.90735e-006 -3.55271e-015 69.3212 -12.879 93.6778 12.8897 0 9.53674e-007 -121.349 2.54934e-006 -5.63772e-007 11.2623 -1.90735e-006 -9.53674e-007 -29.8447 -84.2967 -50.9448 3.98015 -0.208661 0.0949783 14.2321 -11.4819 62.2536 6.57563 1.77636e-015 0 1.46954e-007 -1.12795e-009 -5.55533e-009 4.195 -0.00313282 8.73115e-011 20.5971 -1.37233e-010 1.04057e-010 4.17603 0.298256 -2.03727e-010 4.32702 -5.42655e-011 6.43566e-012 6.53259 -3.90694 -2.55361 133.022 18.1126 163.581 6.5326 -3.90695 2.55371 -46.9761 18.1112 -16.4184 1.75935 -4.1584 -4.45634 24.7931 -39.7306 142.462 1.75933 -4.15841 4.45616 -155.196 -39.7317 -37.5282 11.2964 -1.06184 2.32054 151.28 -2.12726 -89.9983 11.2964 -1.06183 -2.32036 -28.7077 -2.13817 89.9962 1.31489 1.30001 2.03727e-010 -142.031 -0.0374451 -179.987 12.6869 -1.90735e-006 1.16415e-010 -4.48321e-008 1.3067e-011 -1.34232e-010 
-21.8404 27.7812 -8.22567e-009 -180 -90 -90 0 1.13687e-013 0 -89.9968 1.65213 -89.9979 -7.25225 -1.74978 2.91046e-011 -30.8831 11.0036 174.161 15.788 3.8147e-006 -1.06581e-014 -41.6829 20.8691 12.3744 16.0015 8.88178e-015 -2.66454e-015 -41.7539 -2.69355 29.5036 16.1689 -3.8147e-006 -3.8147e-006 -35.1761 -3.66962 27.874 6.33245 2.89308 -2.91051e-011 22.3713 -0.00409261 0.27087 6.12662 8.45826 3.35561e-009 -88.8261 -0.0177455 -179.595 -6.93102 -0.264221 -5.46051 -91.6336 1.337 173.776 13.6591 7.10543e-015 -4.76837e-007 -43.7124 7.03347e-006 6.77104e-006 9.07515 3.8147e-006 0 37.9011 1.30105e-006 -6.56321e-007 8.13856 3.8147e-006 0.000670433 26.0575 3.11318 5.4499 3.79726 6.30091 0.000694275 89.6133 9.15208e-010 1.56678e-009 0.83877 5.96047e-008 3.55271e-015 2.82888e-008 -5.35084e-010 -1.85155e-009 -6.98279 -0.265389 5.39411 -141.863 -2.13613 -176.598 13.6591 4.76837e-007 -1.77636e-015 -90.7108 -1.01961e-005 9.48393e-006 9.07516 3.55271e-015 8.88178e-016 64.4577 5.07815e-006 -9.00674e-006 8.13856 -7.10543e-015 4.76837e-007 -4.50658 -12.949 -4.00453 3.79737 6.30085 9.54676e-007 89.6375 0.0814287 -12.5859 0.838765 6.97359e-015 9.53674e-007 -179.96 0.000181118 -0.000158999 12.1681 -0.0104809 2.49461e-011 -7.59689 0.0380971 -0.28564 -0.157499 5.09008 -6.54008 -93.118 0.0999946 -168.067 -0.157503 5.09007 6.54 86.9302 -0.0678013 12.0052 8.29709 8.50413 -1.5398e-010 -91.9463 -0.00100707 -179.704 13.2792 -0.00986099 -5.80291e-011 -14.9843 -0.00701449 -0.353587 12.4882 -6.66643 -9.63378e-011 -18.8931 -2.53325e-008 8.78582e-011 -6.51175 -4.59406 -1.17797 -161.161 -50.5032 113.134 13.2557 1.77636e-014 -1.90735e-006 130.194 79.2966 -161.479 12.8897 -1.90735e-006 -9.53674e-007 -66.3396 -6.59729e-006 -1.55922e-005 11.2622 4.76837e-007 7.10543e-015 -92.4139 72.4422 124.727 3.98015 -0.208658 -0.0949803 2.15041 8.63777 -35.8763 6.57561 -1.19209e-007 -1.19209e-007 179.96 -1.00318e-005 1.73046e-005 -6.51175 -4.59407 1.17786 -161.163 55.3286 -93.6472 13.2558 -1.90735e-006 1.06581e-014 69.6691 -13.0196 93.241 12.8897 1.42109e-014 9.53674e-007 -123.708 3.00942e-006 -2.28042e-007 11.2623 -1.90735e-006 -9.53674e-007 -27.4174 -84.7147 -50.7857 3.98015 -0.208661 0.0949783 14.306 -11.5262 62.2996 6.57563 -7.10542e-015 3.55271e-015 1.46954e-007 -1.12795e-009 -5.55533e-009 4.195 -0.00313282 8.58904e-011 16.7116 0.0169208 0.066273 4.17603 0.298256 -1.88098e-010 6.06279 0.064749 1.1083 6.53259 -3.90694 -2.55361 132.845 18.1384 163.623 6.5326 -3.90695 2.55371 -47.1316 18.0979 -16.4355 1.75935 -4.1584 -4.45634 25.7294 -40.1369 143.549 1.75933 -4.15841 4.45616 -154.256 -39.4687 -36.5787 11.2964 -1.06184 2.32054 151.282 -2.52895 -89.9988 11.2964 -1.06183 -2.32036 -28.7076 -2.63968 89.9988 1.31489 1.30001 4.81021e-010 -142.389 -0.0119171 -179.996 12.6869 -1.90735e-006 1.16415e-010 -4.48321e-008 1.30669e-011 -1.34232e-010 
-21.971 27.639 -1.59116e-008 -180 -90 -90 0 1.13687e-013 0 -89.9974 1.65211 -89.9977 -7.25225 -1.74978 2.91043e-011 -32.3625 11.2396 172.672 15.788 3.8147e-006 -1.77636e-014 -41.851 21.3128 11.7385 16.0015 7.10543e-015 -2.66454e-015 -41.3129 -1.81492 30.2002 16.1689 -3.8147e-006 -3.8147e-006 -34.5393 -7.08081 25.0118 6.33245 2.89308 -2.91047e-011 22.8765 -0.0111254 0.544593 6.12662 8.45826 6.86774e-009 -88.6611 -0.00241067 -179.23 -6.90574 -0.200993 -5.49368 -92.596 1.64093 173.787 13.6591 -7.10543e-015 -4.76837e-007 -45.4001 6.81742e-006 6.97511e-006 9.07515 3.8147e-006 -2.66454e-015 39.8252 1.28681e-006 -6.94061e-007 8.13856 3.8147e-006 0.000670433 25.7388 3.14959 5.46634 3.79726 6.30091 0.000694275 89.2862 4.89793e-010 1.13963e-009 0.83877 5.96047e-008 3.55271e-015 2.82888e-008 -5.35084e-010 -1.85155e-009 -7.0099 -0.204405 5.36047 -141.956 -1.9474 -176.364 13.6591 4.76837e-007 -8.88178e-016 -91.2294 -1.02785e-005 9.39479e-006 9.07516 0 0 67.2673 4.62075e-006 -9.21236e-006 8.13856 7.10543e-015 4.76837e-007 -6.04671 -13.0604 -4.00308 3.79737 6.30085 9.55974e-007 89.2827 0.161749 -12.6716 0.838765 -4.29518e-015 9.53674e-007 -179.96 0.000181118 -0.000158999 12.1681 -0.0104809 2.05945e-011 -7.50964 0.0768092 -0.582646 -0.157499 5.09008 -6.54008 -93.4865 0.19872 -168.148 -0.157503 5.09007 6.54 85.853 -0.294547 11.9747 8.29709 8.50413 -3.97181e-010 -92.7386 -0.000945875 -178.914 13.2792 -0.00986099 -5.77471e-011 -15.5052 -0.0204719 -0.705153 12.4882 -6.66643 -1.10406e-010 -18.1668 -5.01608e-008 1.19874e-010 -6.56877 -4.51156 -1.17801 -161.887 -48.6329 114.478 13.2557 2.84217e-014 -1.90735e-006 124.806 77.4621 -158.251 12.8897 -1.90735e-006 -9.53674e-007 -67.4144 -6.29949e-006 -1.57676e-005 11.2622 4.76837e-007 1.77636e-015 -90.8831 71.9973 123.619 3.98015 -0.208658 -0.0949803 2.23814 8.75825 -35.9192 6.57561 -1.19209e-007 -1.19209e-007 179.96 -1.00319e-005 1.73046e-005 -6.56877 -4.51157 1.17782 -161.891 55.33 -93.6465 13.2558 -1.90735e-006 -8.88178e-015 70.0508 -13.1063 92.7913 12.8897 5.32907e-015 9.53674e-007 -126.107 3.00057e-006 -1.6075e-007 11.2623 -1.90735e-006 -9.53674e-007 -24.6559 -85.1341 -50.4534 3.98015 -0.208661 0.0949783 14.3784 -11.5695 62.3448 6.57563 -1.77636e-015 9.76996e-015 1.46954e-007 -1.12795e-009 -5.55533e-009 4.195 -0.00313282 8.45267e-011 12.6715 0.0494157 0.223226 4.17603 0.298256 -1.40505e-010 7.8018 0.0500629 2.32776 6.53259 -3.90694 -2.55361 132.672 18.1636 163.664 6.5326 -3.90695 2.55371 -47.2841 18.0849 -16.4522 1.75935 -4.1584 -4.45634 28.0471 -41.07 146.23 1.75933 -4.15841 4.45616 -152.057 -38.7688 -34.3213 11.2964 -1.06184 2.32054 151.275 -3.60278 -89.9958 11.2964 -1.06183 -2.32036 -28.7075 -3.96887 89.9953 1.31489 1.30001 5.71321e-010 -143.614 -0.0242767 -179.992 12.6869 -1.90735e-006 1.16415e-010 -4.48321e-008 1.3067e-011 -1.34232e-010 
-22.1028 27.4953 -2.36735e-008 -180 -90 -90 0 1.13687e-013 0 -89.9974 1.65208 -89.9977 -7.25225 -1.74978 2.91033e-011 -33.6169 11.4223 171.28 15.788 3.8147e-006 -2.4869e-014 -41.7175 21.7118 11.0154 16.0015 3.55271e-015 2.66454e-015 -40.6814 -0.918694 30.7162 16.1689 -3.8147e-006 -3.8147e-006 -34.474 -10.2708 22.3876 6.33245 2.89308 -2.91029e-011 23.4231 -0.0147965 0.824523 6.12662 8.45826 1.05868e-008 -88.4945 0.0141574 -178.861 -6.8802 -0.137146 -5.52718 -93.4709 1.95534 173.779 13.6591 -1.06581e-014 -4.76837e-007 -46.833 6.62747e-006 7.14162e-006 9.07515 3.8147e-006 1.77636e-015 41.6936 1.27195e-006 -7.29107e-007 8.13856 3.8147e-006 0.000670433 25.4459 3.20222 5.47507 3.79726 6.30091 0.000694275 88.7608 0.000407985 8.82632e-006 0.83877 5.96046e-008 3.55271e-015 2.82888e-008 -5.35084e-010 -1.85155e-009 -7.03727 -0.142826 5.3265 -141.944 -1.74317 -176.126 13.6591 4.76837e-007 8.88178e-016 -91.5949 -1.03328e-005 9.33287e-006 9.07516 0 8.88178e-016 70.2505 4.11656e-006 -9.40422e-006 8.13856 -3.55271e-015 4.76837e-007 -7.72994 -13.1833 -3.99285 3.79737 6.30085 9.57331e-007 88.9245 0.243417 -12.7577 0.838765 1.19071e-014 9.53674e-007 -179.96 0.000181118 -0.000158999 12.1681 -0.0104809 1.59863e-011 -7.4422 0.115767 -0.886178 -0.157499 5.09008 -6.54008 -94.5578 0.481288 -168.472 -0.157503 5.09007 6.54 84.7651 -0.522903 11.9395 8.29709 8.50413 -6.58284e-010 -94.1214 0.0160526 -177.534 13.2792 -0.00986099 -5.74442e-011 -16.0706 -0.0299515 -1.0638 12.4882 -6.66643 -1.14036e-010 -17.427 -7.35892e-008 1.21933e-010 -6.62636 -4.42824 -1.17804 -162.628 -46.6077 115.941 13.2557 5.68434e-014 -1.90735e-006 120.204 75.4044 -155.946 12.8897 -1.90735e-006 -9.53674e-007 -68.3798 -6.02527e-006 -1.59202e-005 11.2622 4.76837e-007 5.32907e-015 -89.5969 71.5484 122.605 3.98015 -0.208658 -0.0949803 2.32685 8.87987 -35.9628 6.57561 -1.19209e-007 -1.19209e-007 179.96 -1.00319e-005 1.73047e-005 -6.62635 -4.42825 1.17779 -162.627 55.3314 -93.6456 13.2558 -1.90735e-006 1.42109e-014 70.4836 -13.2879 92.3563 12.8897 -1.06581e-014 9.53674e-007 -128.531 2.96507e-006 -8.79022e-008 11.2623 -1.90735e-006 -9.53674e-007 -21.3262 -85.561 -49.7417 3.98015 -0.208661 0.0949783 14.4516 -11.6132 62.3905 6.57563 -7.10542e-015 3.10862e-015 1.46954e-007 -1.12795e-009 -5.55533e-009 4.195 -0.00313282 8.32447e-011 8.53024 0.0760281 0.408143 4.17603 0.298256 -6.74353e-011 9.56408 -0.0328423 3.59343 6.53259 -3.90694 -2.55361 132.496 18.1889 163.706 6.5326 -3.90695 2.55371 -47.4381 18.0719 -16.4691 1.75935 -4.1584 -4.45634 31.2054 -42.2249 149.849 1.75933 -4.15841 4.45616 -149.316 -37.7286 -31.4243 11.2964 -1.06184 2.32054 151.271 -5.48069 -89.9951 11.2964 -1.06183 -2.32036 -28.7079 -6.20604 89.9966 1.31489 1.30001 3.62491e-010 -144.851 -0.0368347 -179.988 12.6869 -1.90735e-006 1.16415e-010 -4.48321e-008 1.3067e-011 -1.34231e-010 
